<?xml version="1.0" encoding="utf-8"?>
<!-- Generator: Adobe Illustrator 15.1.0, SVG Export Plug-In . SVG Version: 6.00 Build 0)  -->
<!DOCTYPE svg PUBLIC "-//W3C//DTD SVG 1.1//EN" "http://www.w3.org/Graphics/SVG/1.1/DTD/svg11.dtd">
<svg version="1.1" id="Camada_1" xmlns="http://www.w3.org/2000/svg" xmlns:xlink="http://www.w3.org/1999/xlink" x="0px" y="0px"
	 width="294px" height="303px" viewBox="0 0 294 303" enable-background="new 0 0 294 303" xml:space="preserve">
<path fill="#D07EAD" stroke="#211915" d="M289,149c0,0-1.649-0.825-4.948-3.077c-4.824-3.293-13.175-9.639-25.052-20.923
	c0,1-9-18-41-9c1,1-38,20-38,20s16,39,0,56c0,1,52-42.427,54.5-39.213s14.201-9.436,52.851-4.611"/>
<path fill="#69B3D9" stroke="#211915" d="M112,79c-11-14,19-70,19-73c-3,32,14,54,13,54c15.813,29.096,28.425,50.59,35.56,62.458
	c1.625,2.704,2.966,4.908,3.995,6.589C185.151,131.653,186,133,186,133"/>
<path fill="#69B3D9" stroke="#211915" d="M31,0"/>
<path fill="#B06A9C" stroke="#211915" d="M187.188,191c5-9,1.726-51.244,1.525-51.837c-4.612-18.349-30.525-29.163-34.525-37.663
	s-81-43.5-81-47.5c-30-7-41-48-41-48c-8,61,27,103,27,102c7,21,90,42,89.788,43.795c23.091,14.096,33.04,32.476,36.571,40.785
	c1.177,2.77,1.641,4.42,1.641,4.42L71,296l20.655-70c0,0,29.345-8,39.345-20c0,2,34.101-16.325,45.145-15.663"/>
<path fill="#EDC635" stroke="#211915" d="M13,80c0,0,22.377,29,46.188,28c0,0,11.479,13.708,55.151,31.853
	c-0.571-0.204,38.346,10.435,50.196,23.648s6.465,11.501-25.535,0C133,165,116,177,74,159c0,0-47-13-61-75"/>
<path fill="#99C8DD" stroke="#211915" d="M180,192c0,0-14-8-43-5c-1,1-48,28-91-7c0,1-6-1-27-34c0-1,36,13,55,13
	c0,0,89.65,5.562,99.325,13.781c-3.919-0.077,6.675,9.257,6.675,9.257"/>
<path fill="#907AAE" d="M31,192.017c0,0,38.31,39.983,60.655,28.983c0,5,83.882-31.337,78.655-32.402s-29.358-3.657-59.834,7.873
	C109,195,104,202,71,194C68,193,43,203.034,31,192.017z"/>
</svg>
